# xmcd
#
# Track frame offsets:
#	150
#	21756
#	41375
#	59854
#	69797
#	88677
#	115406
#	135310
#	149786
#	182411
#
# Disc length: 2575 seconds
#
# Revision: 2
# Processed by: cddbd v1.5.2PL0 Copyright (c) Steve Scherf et al.
# Submitted via: audiograbber 1.83.01
#
DISCID=8b0a0d0a
DTITLE=Kasey Chambers and Shane Nicholson - Rattlin' Bones (The Max Sessions - Li
DTITLE=ve At The Sydney Opera House)
DYEAR=2008
DGENRE=Country
TTITLE0=Rattlin' Bones
TTITLE1=Monkey On A Wire
TTITLE2=Sweetest Waste Of Time
TTITLE3=The Devil's Inside My Head
TTITLE4=Your Day Will Come
TTITLE5=Wildflower
TTITLE6=Jackson Hole
TTITLE7=Short Fuse (Part 4)
TTITLE8=The Captain
TTITLE9=Woe Is Mine
EXTD=
EXTT0=
EXTT1=
EXTT2=
EXTT3=
EXTT4=
EXTT5=
EXTT6=
EXTT7=
EXTT8=
EXTT9=
PLAYORDER=
